<?xml version="1.0" encoding="utf-8"?>
<!-- Generator: Adobe Illustrator 22.0.0, SVG Export Plug-In . SVG Version: 6.00 Build 0)  -->
<svg version="1.1" id="Слой_1" xmlns="http://www.w3.org/2000/svg" xmlns:xlink="http://www.w3.org/1999/xlink" x="0px" y="0px"
	 width="500px" height="467.1px" viewBox="0 0 500 467.1" enable-background="new 0 0 500 467.1" xml:space="preserve">
<path d="M473.7,78.9H351.8C340.1,33.6,299,0,250,0C201,0,159.9,33.6,148.2,78.9H26.3C11.8,78.9,0,90.8,0,105.3v335.5
	c0,14.5,11.8,26.3,26.3,26.3h447.4c14.5,0,26.3-11.8,26.3-26.3V105.3C500,90.8,488.2,78.9,473.7,78.9z M250,19.7
	c38,0,70.1,24.9,81.3,59.2H168.7C179.9,44.6,212,19.7,250,19.7z M26.3,98.7h447.4c3.6,0,6.6,3,6.6,6.6v180.9H315.8v-16.4
	c0-14.5-11.8-26.3-26.3-26.3h-78.9c-14.5,0-26.3,11.8-26.3,26.3v16.4H19.7V105.3C19.7,101.7,22.8,98.7,26.3,98.7z M296.1,269.7v52.6
	c0,3.6-3,6.6-6.6,6.6h-78.9c-3.6,0-6.6-3-6.6-6.6v-52.6c0-3.6,3-6.6,6.6-6.6h78.9C293,263.2,296.1,266.2,296.1,269.7z M473.7,447.4
	H26.3c-3.6,0-6.6-3-6.6-6.6V305.9h164.5v16.4c0,14.5,11.8,26.3,26.3,26.3h78.9c14.5,0,26.3-11.8,26.3-26.3v-16.4h164.5v134.9
	C480.3,444.4,477.3,447.4,473.7,447.4z"/>
</svg>
